<?xml version="1.0" encoding="utf-8"?>
<!-- Generator: Adobe Illustrator 28.3.0, SVG Export Plug-In . SVG Version: 6.00 Build 0)  -->
<svg version="1.1" id="Ebene_1" xmlns="http://www.w3.org/2000/svg" xmlns:xlink="http://www.w3.org/1999/xlink" x="0px" y="0px"
	 viewBox="0 0 45 45" style="enable-background:new 0 0 45 45;" xml:space="preserve">
<style type="text/css">
	.st0{fill:#99FFFF;stroke:#000000;stroke-width:1.1339;stroke-miterlimit:10;}
	.st1{fill:#CCCCCC;stroke:#000000;stroke-width:0.8504;stroke-miterlimit:10;}
</style>
<g>
	<g id="Ebene_26">
		<g>
			<g>
				<circle class="st0" cx="22.5" cy="22.5" r="21.9"/>
			</g>
		</g>
	</g>
	<path class="st1" d="M24.5,25.7c0.2-0.2-0.7-1-0.9-1.1c0,0-1.4-0.4-3,0.6c-0.6-0.6-2.2-2.8-2.3-4.1c-0.2-1.3-1.2-3.9-1.2-3.9
		s-1-5.5-1.2-5.6c-0.2-0.2-0.6,1-0.6,1s-1-6.1-1.2-3.8c-0.2,1-0.2,1.5-0.5,1.3c-0.2-0.2-1.5-3.6-1.2-1.5c0.3,2.2,0.1,1.6-0.3,1.3
		C11.7,9.5,9.3,6,10.9,9.4c0.9,1.8,0,1,0,1s-2.1-2.2-0.6,0.1c1.4,2.2-0.1,1-0.1,1s-1.8-1-0.4,0.7c0.7,0.8,0.1,1,0.1,1S8.3,13,9.7,14
		c0.5,0.5-1.2,0.5-0.2,1.4c0.1,0.2,0.2,0.8,0.2,1s0.7,1.1,0.7,1.1s-0.4,0.7-0.4,1s0.9,0.6,0.9,0.6s-0.6,0.6-0.6,1s0.7,1.1,0.7,1.1
		s-0.2,0.8-0.1,1.2c0.1,0.5,1.2,0.8,1.2,0.8s-0.8,0.6-0.6,0.8c0.2,0.2,0.6,0.9,0.6,0.9s-0.2,0.7-0.1,1.2c0.2,0.6,1.3,0.6,1.3,0.6
		l0.6,0.9c0,0,0.5,1.2,0.8,1.6c0.3,0.3,1.7,0.6,1.7,0.6s-4.5,1.7-4.5,2c0,0.3,1.3,2,1.8,2.4s2,0.7,2,0.7l3.2-2.9
		c0,0,0.9,1.3,1.1,1.4c0.2,0.2,0.7-0.2,0.7-0.2s1.2,0.9,1.4,0.8c0.2,0,0.7-0.7,0.7-0.7s1.6,0.9,1.8,0.9c0.2,0,0.7-0.6,0.7-0.6
		s1.1,0.7,1.4,0.7S26.8,33,27,33c0.2,0,1,1,1.2,1s0.2-1,0.4-1c0.2-0.1,1.8,1.4,2.1,1.4s-0.4-1-0.2-1.2s1.4,0.9,1.6,0.9
		c0.3,0-0.1-1,0.2-1.1c0.2-0.2,1.1,0.9,1.4,0.9c0.3,0-0.2-0.8,0.2-1c0.3-0.2,1.7,1,1.9,0.9s-0.6-0.9-0.4-1.1
		c0.1-0.2,1.6,0.5,1.8,0.4s-0.6-0.6-0.7-1c-0.2-0.2,0.7,0.1,2-0.1c1.3-0.2-1.5-0.7-1.5-1s0.6-0.2,1.7-0.5c1.7-0.5-2.1-0.4-2.2-0.6
		s2-0.8,0.9-1.1c-0.8,0-1.6-0.1-1.6-0.1L27.4,27c-3.4-0.1-4-0.1-4-0.4C23.3,26.5,23.8,26.3,24.5,25.7z"/>
</g>
</svg>
