<?xml version="1.0" encoding="utf-8"?>
<!-- Generator: Adobe Illustrator 28.3.0, SVG Export Plug-In . SVG Version: 6.00 Build 0)  -->
<svg version="1.1" id="Ebene_1" xmlns="http://www.w3.org/2000/svg" xmlns:xlink="http://www.w3.org/1999/xlink" x="0px" y="0px"
	 viewBox="0 0 45 45" style="enable-background:new 0 0 45 45;" xml:space="preserve">
<style type="text/css">
	.st0{fill:#FFFF99;stroke:#000000;stroke-width:1.1339;stroke-miterlimit:10;}
	.st1{fill:#FFFFFF;stroke:#000000;stroke-width:0.8504;stroke-miterlimit:10;}
	.st2{fill:#CCCCCC;stroke:#000000;stroke-width:0.8504;stroke-miterlimit:10;}
</style>
<path class="st0" d="M22.5,0.6c12.1,0,21.9,9.8,21.9,21.9s-9.8,21.9-21.9,21.9S0.6,34.6,0.6,22.5l0,0C0.5,10.4,10.3,0.6,22.5,0.6"/>
<g>
	<g>
		<path class="st1" d="M8.5,11.4c-0.6,0-1,0.5-1,1.1v20c0,0.6,0.5,1.1,1,1.1h18h10c0.6,0,1-0.5,1-1.1v-20c0-0.6-0.5-1.1-1-1.1H8.5
			L8.5,11.4z"/>
		<path class="st2" d="M12.2,14.8h20.5c0.3,0,0.5,0.2,0.5,0.5v1.1c0,0.3-0.2,0.5-0.5,0.5H12.2c-0.3,0-0.5-0.2-0.5-0.5v-1.1
			C11.8,15,12,14.8,12.2,14.8z"/>
		<path class="st2" d="M12.2,18.4h20.5c0.3,0,0.5,0.2,0.5,0.5V20c0,0.3-0.2,0.5-0.5,0.5H12.2c-0.3,0-0.5-0.2-0.5-0.5v-1.1
			C11.8,18.6,12,18.4,12.2,18.4z"/>
		<path class="st2" d="M12.2,22.1h20.5c0.3,0,0.5,0.2,0.5,0.5v1.1c0,0.3-0.2,0.5-0.5,0.5H12.2c-0.3,0-0.5-0.2-0.5-0.5v-1.1
			C11.8,22.3,12,22.1,12.2,22.1z"/>
		<path class="st2" d="M12,25.6h8.5c0.1,0,0.2,0.2,0.2,0.5v1.1c0,0.3-0.1,0.5-0.2,0.5H12c-0.1,0-0.2-0.2-0.2-0.5V26
			C11.8,25.8,11.8,25.6,12,25.6z"/>
	</g>
</g>
</svg>
