<?xml version="1.0" encoding="utf-8"?>
<!-- Generator: Adobe Illustrator 28.3.0, SVG Export Plug-In . SVG Version: 6.00 Build 0)  -->
<svg version="1.1" id="Ebene_1" xmlns="http://www.w3.org/2000/svg" xmlns:xlink="http://www.w3.org/1999/xlink" x="0px" y="0px"
	 viewBox="0 0 45 45" style="enable-background:new 0 0 45 45;" xml:space="preserve">
<style type="text/css">
	.st0{fill:#9999FF;stroke:#000000;stroke-width:1.1339;stroke-miterlimit:10;}
	.st1{fill-rule:evenodd;clip-rule:evenodd;}
	.st2{fill-rule:evenodd;clip-rule:evenodd;fill:#FFFFFF;}
</style>
<path class="st0" d="M22.6,0.6c12.1,0,21.9,9.8,21.9,21.9s-9.8,21.9-21.9,21.9S0.7,34.6,0.7,22.5l0,0C0.6,10.4,10.4,0.6,22.6,0.6"/>
<g>
	<g id="Ebene_2_00000070799773529376339250000014338284376181637046_">
		<path class="st1" d="M25.1,30.5c1.6,0.9,2.7,2.7,2.7,4.6c0,2.9-2.4,5.3-5.3,5.3s-5.3-2.4-5.3-5.3c0-2,1.1-3.6,2.7-4.6V7.2
			c0-1.4,1.2-2.7,2.7-2.7s2.7,1.2,2.7,2.7v4.9h1.8v0.7h-1.8V17h1.8v0.7h-1.8V22h1.8v0.7h-1.8V27h1.8v0.7h-1.8L25.1,30.5L25.1,30.5z
			 M23.5,31.5V20.6h-2.1v10.9c-1.6,0.5-2.7,1.9-2.7,3.6c0,2.1,1.7,3.7,3.7,3.7s3.7-1.7,3.7-3.7C26.2,33.4,25,31.9,23.5,31.5z
			 M24.2,31.1V7.2c0-0.9-0.8-1.7-1.7-1.7s-1.7,0.8-1.7,1.7V31l-0.5,0.3c-1.4,0.8-2.2,2.2-2.2,3.8c0,2.4,2,4.3,4.3,4.3
			c2.4,0,4.3-2,4.3-4.3c0-1.6-0.8-3-2.2-3.8L24.2,31.1L24.2,31.1z"/>
		<path class="st2" d="M23.5,31.5V20.6h-2.1v10.9c-1.6,0.5-2.7,1.9-2.7,3.6c0,2.1,1.7,3.7,3.7,3.7s3.7-1.7,3.7-3.7
			C26.2,33.4,25,31.9,23.5,31.5z"/>
	</g>
</g>
</svg>
