<?xml version="1.0" encoding="utf-8"?>
<!-- Generator: Adobe Illustrator 28.3.0, SVG Export Plug-In . SVG Version: 6.00 Build 0)  -->
<svg version="1.1" id="Ebene_1" xmlns="http://www.w3.org/2000/svg" xmlns:xlink="http://www.w3.org/1999/xlink" x="0px" y="0px"
	 viewBox="0 0 45 45" style="enable-background:new 0 0 45 45;" xml:space="preserve">
<style type="text/css">
	.st0{fill:#CCFF99;stroke:#000000;stroke-width:1.1339;stroke-miterlimit:10;}
	.st1{fill:#CCCCCC;stroke:#000000;stroke-width:0.8504;stroke-linecap:round;stroke-miterlimit:10;}
</style>
<path class="st0" d="M22.5,0.6c12.1,0,21.9,9.8,21.9,21.9s-9.8,21.9-21.9,21.9S0.6,34.6,0.6,22.5l0,0C0.5,10.4,10.3,0.6,22.5,0.6"/>
<g>
	<path image-rendering="auto" shape-rendering="auto" color-rendering="auto" class="st1" d="M13,9.9c-1.8,0-3.3,1.5-3.3,3.3l0,0
		c0,1.8,1.5,3.3,3.3,3.3l0,0c1.8,0,3.3-1.5,3.3-3.3l0,0C16.3,11.3,14.8,9.9,13,9.9L13,9.9z M32.6,29.3L32.6,29.3
		c-1.1,0-2.2-0.6-3.4-0.6l0,0c-1.1,0-2.2,0.6-3.4,0.6l0,0c-1.1,0-2.2-0.6-3.4-0.6l0,0c-1.1,0-2.2,0.6-3.4,0.6l0,0
		c-1.1,0-2.2-0.6-3.4-0.6l0,0c-1.1,0-2.2,0.6-3.4,0.6l0,0c-1.1,0-2.2-0.6-3.4-0.6l0,0c-1.1,0-2.4,0.5-3.4,0.6
		c7.6,14.3,26.1,14.4,33.6,0l0,0c-1.1,0-2.2-0.6-3.4-0.6l0,0C34.9,28.8,33.7,29.3,32.6,29.3 M11.8,25.2l5.9-4l4.3,1.7l7.6-8.9
		l9.8,11.4"/>
</g>
</svg>
