<?xml version="1.0" encoding="utf-8"?>
<svg width="4em" height="4em" viewBox="0 0 48 48" fill="none" xmlns="http://www.w3.org/2000/svg">
  <defs>
    <radialGradient gradientUnits="userSpaceOnUse" cx="24.066" cy="23.769" r="22.22" id="gradient-0" spreadMethod="pad">
      <stop offset="0" style="stop-color: rgba(202, 171, 0, 0.63);"/>
      <stop offset="1" style="stop-color: rgba(202, 171, 0, 0);"/>
    </radialGradient>
  </defs>
  <ellipse style="fill: url('#gradient-0');" cx="24.066" cy="23.769" rx="22.22" ry="21.132"/>
  <rect x="20.242" y="20.242" width="7.978" height="5.67" style="stroke: rgb(0, 0, 0); fill: rgb(255, 255, 255);"/>
  <path d="M12.8 38H16C16.5667 38 17.042 38.192 17.426 38.576C17.81 38.96 18.0013 39.4347 18 40C18 40.5667 17.808 41.042 17.424 41.426C17.04 41.81 16.5653 42.0013 16 42H8C7.43333 42 6.958 41.808 6.574 41.424C6.19 41.04 5.99867 40.5653 6 40V32C6 31.4333 6.192 30.958 6.576 30.574C6.96 30.19 7.43467 29.9987 8 30C8.56667 30 9.042 30.192 9.426 30.576C9.81 30.96 10.0013 31.4347 10 32V35.2L14.8 30.4C15.1667 30.0333 15.6333 29.85 16.2 29.85C16.7667 29.85 17.2333 30.0333 17.6 30.4C17.9667 30.7667 18.15 31.2333 18.15 31.8C18.15 32.3667 17.9667 32.8333 17.6 33.2L12.8 38ZM35.2 38L30.4 33.2C30.0333 32.8333 29.85 32.3667 29.85 31.8C29.85 31.2333 30.0333 30.7667 30.4 30.4C30.7667 30.0333 31.2333 29.85 31.8 29.85C32.3667 29.85 32.8333 30.0333 33.2 30.4L38 35.2V32C38 31.4333 38.192 30.958 38.576 30.574C38.96 30.19 39.4347 29.9987 40 30C40.5667 30 41.042 30.192 41.426 30.576C41.81 30.96 42.0013 31.4347 42 32V40C42 40.5667 41.808 41.042 41.424 41.426C41.04 41.81 40.5653 42.0013 40 42H32C31.4333 42 30.958 41.808 30.574 41.424C30.19 41.04 29.9987 40.5653 30 40C30 39.4333 30.192 38.958 30.576 38.574C30.96 38.19 31.4347 37.9987 32 38H35.2ZM10 12.8V16C10 16.5667 9.808 17.042 9.424 17.426C9.04 17.81 8.56533 18.0013 8 18C7.43333 18 6.958 17.808 6.574 17.424C6.19 17.04 5.99867 16.5653 6 16V8C6 7.43333 6.192 6.958 6.576 6.574C6.96 6.19 7.43467 5.99867 8 6H16C16.5667 6 17.042 6.192 17.426 6.576C17.81 6.96 18.0013 7.43467 18 8C18 8.56667 17.808 9.042 17.424 9.426C17.04 9.81 16.5653 10.0013 16 10H12.8L17.6 14.8C17.9667 15.1667 18.15 15.6333 18.15 16.2C18.15 16.7667 17.9667 17.2333 17.6 17.6C17.2333 17.9667 16.7667 18.15 16.2 18.15C15.6333 18.15 15.1667 17.9667 14.8 17.6L10 12.8ZM38 12.8L33.2 17.6C32.8333 17.9667 32.3667 18.15 31.8 18.15C31.2333 18.15 30.7667 17.9667 30.4 17.6C30.0333 17.2333 29.85 16.7667 29.85 16.2C29.85 15.6333 30.0333 15.1667 30.4 14.8L35.2 10H32C31.4333 10 30.958 9.80867 30.574 9.426C30.19 9.04333 29.9987 8.568 30 8C30 7.43333 30.192 6.958 30.576 6.574C30.96 6.19 31.4347 5.99867 32 6H40C40.5667 6 41.042 6.192 41.426 6.576C41.81 6.96 42.0013 7.43467 42 8V16C42 16.5667 41.808 17.042 41.424 17.426C41.04 17.81 40.5653 18.0013 40 18C39.4333 18 38.958 17.808 38.574 17.424C38.19 17.04 37.9987 16.5653 38 16V12.8Z" style="fill: rgb(0, 0, 0); fill-opacity: 0.61;"/>
  <path d="M21.5 25C21.6417 25 21.7605 24.952 21.8565 24.856C21.9525 24.76 22.0003 24.6413 22 24.5C22 24.3583 21.952 24.2395 21.856 24.1435C21.76 24.0475 21.6413 23.9997 21.5 24C21.3583 24 21.2395 24.048 21.1435 24.144C21.0475 24.24 20.9997 24.3587 21 24.5C21 24.6417 21.048 24.7605 21.144 24.8565C21.24 24.9525 21.3587 25.0003 21.5 25ZM21.5 23.5C21.6417 23.5 21.7605 23.452 21.8565 23.356C21.9525 23.26 22.0003 23.1413 22 23C22 22.8583 21.952 22.7395 21.856 22.6435C21.76 22.5475 21.6413 22.4997 21.5 22.5C21.3583 22.5 21.2395 22.548 21.1435 22.644C21.0475 22.74 20.9997 22.8587 21 23C21 23.1417 21.048 23.2605 21.144 23.3565C21.24 23.4525 21.3587 23.5003 21.5 23.5ZM21.5 22C21.6417 22 21.7605 21.952 21.8565 21.856C21.9525 21.76 22.0003 21.6413 22 21.5C22 21.3583 21.952 21.2395 21.856 21.1435C21.76 21.0475 21.6413 20.9997 21.5 21C21.3583 21 21.2395 21.048 21.1435 21.144C21.0475 21.24 20.9997 21.3587 21 21.5C21 21.6417 21.048 21.7605 21.144 21.8565C21.24 21.9525 21.3587 22.0003 21.5 22ZM23.5 25H25C25.1417 25 25.2605 24.952 25.3565 24.856C25.4525 24.76 25.5003 24.6413 25.5 24.5C25.5 24.3583 25.452 24.2395 25.356 24.1435C25.26 24.0475 25.1413 23.9997 25 24H23.5C23.3583 24 23.2395 24.048 23.1435 24.144C23.0475 24.24 22.9997 24.3587 23 24.5C23 24.6417 23.048 24.7605 23.144 24.8565C23.24 24.9525 23.3587 25.0003 23.5 25ZM23.5 23.5H26.5C26.6417 23.5 26.7605 23.452 26.8565 23.356C26.9525 23.26 27.0003 23.1413 27 23C27 22.8583 26.952 22.7395 26.856 22.6435C26.76 22.5475 26.6413 22.4997 26.5 22.5H23.5C23.3583 22.5 23.2395 22.548 23.1435 22.644C23.0475 22.74 22.9997 22.8587 23 23C23 23.1417 23.048 23.2605 23.144 23.3565C23.24 23.4525 23.3587 23.5003 23.5 23.5ZM23.5 22H26.5C26.6417 22 26.7605 21.952 26.8565 21.856C26.9525 21.76 27.0003 21.6413 27 21.5C27 21.3583 26.952 21.2395 26.856 21.1435C26.76 21.0475 26.6413 20.9997 26.5 21H23.5C23.3583 21 23.2395 21.048 23.1435 21.144C23.0475 21.24 22.9997 21.3587 23 21.5C23 21.6417 23.048 21.7605 23.144 21.8565C23.24 21.9525 23.3587 22.0003 23.5 22ZM21 27L19.85 28.15C19.6917 28.3083 19.5103 28.3438 19.306 28.2565C19.1017 28.1692 18.9997 28.0128 19 27.7875V20C19 19.725 19.098 19.4895 19.294 19.2935C19.49 19.0975 19.7253 18.9997 20 19H28C28.275 19 28.5105 19.098 28.7065 19.294C28.9025 19.49 29.0003 19.7253 29 20V26C29 26.275 28.902 26.5105 28.706 26.7065C28.51 26.9025 28.2747 27.0003 28 27H21Z" style="fill: rgb(255, 216, 0); stroke: rgb(0, 0, 0); stroke-width: 0.2px;"/>
</svg>