<?xml version="1.0" encoding="utf-8"?>
<!-- Generator: Adobe Illustrator 28.3.0, SVG Export Plug-In . SVG Version: 6.00 Build 0)  -->
<svg version="1.1" id="Ebene_1" xmlns="http://www.w3.org/2000/svg" xmlns:xlink="http://www.w3.org/1999/xlink" x="0px" y="0px"
	 viewBox="0 0 45 45" style="enable-background:new 0 0 45 45;" xml:space="preserve">
<style type="text/css">
	.st0{fill:#FF9999;stroke:#000000;stroke-miterlimit:10;}
	.st1{fill:#CCCCCC;stroke:#000000;stroke-width:0.8504;stroke-miterlimit:10;}
</style>
<g>
	<path class="st0" d="M22.5,0.6c-12,0-21.9,9.9-21.9,21.9s9.9,21.9,21.9,21.9s21.9-9.9,21.9-21.9S34.6,0.6,22.5,0.6L22.5,0.6z"/>
	<g id="layer1_00000066489249777845821100000009974406249253024144_">
		<g>
			<path class="st1" d="M21.8,3.4c-0.2,0.1-0.5,0.2-0.7,0.2c-0.2,0.1-0.6,0.2-0.8,0.3c-0.2,0.1-0.5,0.5-0.5,0.6
				c-0.1,0.2-0.2,0.6-0.2,0.8s0.2,0.4,0.2,0.5C20,6.1,20,6.2,20.1,6.7c0,0.5,0,0.5,0.2,0.8c0.1,0.3,0.2,0.6,0.5,0.9
				c0.1,0.2,0.2,0.2,0.5,0.2c0.1,0,0.2,0,0.2,0c0.1,0.1,0.2,0.5,0.2,0.8c0.1,0.3,0,0.4-0.2,0.4c-0.1,0-0.3,0.7-0.3,0.9
				c-0.1,0.2-0.5,1.5-0.5,1.8c0,0.2-0.7,2.7-0.7,2.7l-0.5,3.1c-0.1,0.2-0.1,0.9-0.2,1.6c0,0.2,0,1.7,0,2c0.1,0.5,0.1,0.6,0.2,0.8
				c0.2,0.2,0.2,0.3,0.2,0.5s0.1,0.6,0.2,1.2c0.1,0.4,0.3,1.1,0.5,1.3c0.2,0.3,0.3,0.7,0.4,0.9s0.5,3.1,0.5,3.1
				c0.1,0.5,0.2,1.2,0.5,1.7c0.2,0.2,0.7,0.9,0.7,0.9s0.1,0.7,0.2,0.9c0.2,0.8,0.2,0.8,0.2,1.6c-0.1,0.8,0.3,1.3,0.3,1.3
				s0,2.2-0.2,2.3c-0.1,0-0.7,0.5-0.9,0.6c-0.2,0.1-0.9,0.2-0.9,0.2c-0.2,0.1-0.3,0.2-0.4,0.5c0,0.1-0.1,0.2-0.1,0.3
				c-0.1,0.1-0.5,0.2-0.7,0.2s-0.5,0.2-0.6,0.2c-0.1,0.1-0.1,0.2-0.1,0.3c0,0.2,0.1,0.4,0.5,0.5l0.3,0.1c0,0,1.9-0.1,2-0.1
				c0.2,0,1.1-0.2,1.3-0.2s0.7-0.1,1.1-0.2c0.5-0.1,0.6-0.1,0.8-0.2c0.2-0.1,0.2-0.2,0.2-0.3s0-0.2,0.3-0.2c0.4-0.1,0.3-0.1,0.3-0.6
				s0-0.5-0.2-0.9s-0.2-0.5-0.3-0.5c-0.2,0.1-0.2-0.3-0.2-0.9c0-0.4,0-0.5,0.1-0.8s0.1-0.4,0.1-0.6s0.2-0.6,0.2-2.1
				c0-1,0-1.6-0.1-1.9c-0.1-0.4-0.2-0.9-0.2-1.2c0-0.1-0.1-0.2-0.1-0.2C25.3,30.7,25,29.7,25,29c-0.1-0.6-0.1-3.2,0-4.1
				c0-0.3,0.1-0.5,0.2-0.6c0-0.1,0.1-0.8,0.2-0.8l1-0.1c0,0,0-0.5,0.1-0.5c0,0,0.3,0.1,0.5,0.1c0.6,0.2,0.9,0.2,1.3,0.2
				c0.4-0.1,1.5-0.3,1.5-0.4c0-0.2,0.2-1,0.3-1.4c0-0.1,0.3-1.3,0.3-1.5c0.1-0.5,0.4-2.1,0.4-2.3s-0.1-2.3-0.1-2.7
				c0-0.2,0-0.5-0.1-0.5s-0.9-0.8-1.1-0.9c-0.2-0.2-0.5-0.6-0.6-0.7c-0.2-0.1-0.5-0.2-0.8-0.2c-0.1,0-0.1,0-0.3-0.3
				c-0.2-0.2-0.3-0.3-0.6-0.3c-0.2,0-0.5,0.2-0.7-0.1C26.4,11.7,26,11,26,11c-0.4-0.6-0.6-0.9-1.1-1.3c-0.1-0.1-0.2-0.2-0.2-0.3
				c-0.1-0.2-0.1-0.2-0.1-0.5s0-0.2-0.1-0.3c0,0-0.5-0.2-0.5-0.5l-0.1-0.3l0.2-0.2c0.1-0.2,0.5-1.9,0.5-2.2c0-0.4-0.1-0.5-0.2-0.9
				c-0.2-0.4-0.8-0.8-1-0.8c0,0-0.5-0.2-0.6-0.2C22.5,3.4,22,3.4,21.8,3.4z"/>
		</g>
	</g>
</g>
</svg>
