<?xml version="1.0" encoding="utf-8"?>
<!-- Generator: Adobe Illustrator 28.3.0, SVG Export Plug-In . SVG Version: 6.00 Build 0)  -->
<svg version="1.1" id="Ebene_1" xmlns="http://www.w3.org/2000/svg" xmlns:xlink="http://www.w3.org/1999/xlink" x="0px" y="0px"
	 viewBox="0 0 45 45" style="enable-background:new 0 0 45 45;" xml:space="preserve">
<style type="text/css">
	.st0{fill:#FFCCFF;stroke:#000000;stroke-width:1.1339;stroke-miterlimit:10;}
	.st1{fill:#CCCCCC;stroke:#000000;stroke-width:0.8504;stroke-miterlimit:10;}
</style>
<g>
	<path class="st0" d="M22.5,0.6c12.1,0,21.9,9.8,21.9,21.9s-9.8,21.9-21.9,21.9S0.6,34.6,0.6,22.5l0,0C0.5,10.4,10.4,0.6,22.5,0.6"
		/>
	<g id="layer1_00000165952402911720924570000013032431875090371484_">
		<g>
			<path class="st1" d="M12.8,6.5c-0.2,0-0.2,0-0.4,0.1l0,0c-1,0.3-1.1,1.6-0.4,3.9c0.4,1.3,0.9,2.2,1.4,2.8
				c0.4,0.5,1.7,0.7,1.7,0.7l0,0c-0.2,0.2-0.1,0.7,0.2,1.6l0,0c-0.1,0-1-0.3-1.1-0.3s-4.6-1.1-5-1.1c-0.3,0-0.7,0-1,0.1
				C8,14.1,7,14.6,7,14.7c0,0-0.5,0.6-0.6,0.7c-0.1,0.2-0.1,0.3,0,0.5c0,0.1,0.4,1.2,0.4,1.2c0.1,0.2,0.8,1,0.8,1s0.8,0.9,1,1
				c0.1,0.1,1.5,1,1.6,1s1.1,0.3,1.5,0.3c0.2,0,0.3,0,0.4,0.1l0.2,0.2c0.2,0.2,0.8,0.7,0.8,0.7l0.4,0.2c0.2,0.1,1.5,0.6,1.7,0.6
				s0.5,0.2,0.5,0.2s-0.2,0.3-0.2,0.4c-0.2,0.2-1.1,1.2-1.2,1.3c-0.1,0.1-0.2,0.2-0.2,0.3c-0.2,0.2-0.5,0.9-0.6,1
				c0,0.1-0.3,0.7-0.4,0.8c0,0.1-0.2,0.6-0.2,0.7s-0.2,0.8-0.2,1s0.1,1.6,0.1,2c0.1,0.7,0.2,1.4,0.3,2.1c0,0.1,0.2,0.8,0.2,0.8
				c0,0.1,0.2,0.4,0.2,0.4c0,0.1,0.3,0.7,0.4,0.9c0.2,0.3,0.7,1.1,0.7,1.2c0.2,0.2,0.5,0.5,0.6,0.6c0,0,0.4,0.2,0.6,0.3s0.8,0.1,1,0
				s0.3-0.2,0.5-0.3c0.2-0.2,0.6-0.8,0.7-0.9c0.1-0.2,0.5-0.8,0.6-1.1c0.2-0.4,0.4-0.3,0.5-0.2c0,0.2,0,0.3,0,0.7
				c0,0.6,0,1.7,0.1,2.1c0.1,0.7,0.2,1.1,0.4,1.5c0.1,0.2,0.3,0.3,0.5,0.5s0.2,0.2,0.2,0.5c0,0.2,0,0.3,0,0.3s-0.2,0.2-0.3,0.2
				c-0.2,0.1-0.6,0.4-0.8,0.6c-0.2,0.2-0.3,0.3-0.2,0.4c0,0,1.8-0.9,2-1.1c0.2-0.2,1.1-1,1.3-1.2c0.2-0.2,0.4-0.7,0.4-0.7
				c0.1-0.2,0.1-1.1,0-1.5c0-0.1-0.2-0.8-0.2-0.9L22,33.7c0,0-0.5-1.1-0.6-1.2c-0.2-0.6-0.3-0.7-0.3-1.1c0-0.2,0-0.5,0-0.7
				s0-0.4,0-0.5s0.1-0.2,0.2-0.3c0,0,0.8-1.2,1-1.4c0.2-0.2,0.3-0.4,0.4-0.4s0.1,0.1,0.1,0.2s0.2,1.1,0.2,1.2s0.4,1.6,0.7,1.7
				c0.1,0,0.7,1.2,0.9,1.6c0,0,0.4,0.6,0.6,0.7s0.2,0.5,0.2,0.6s0.1,0.2-0.1,0.5C25.1,35,25,35.2,25,35.3c0,0.1,0.1,0.2,0.2,0.2
				s0.2-0.1,0.2-0.2c0.1-0.2,1-2.3,1-2.4c0-0.2,0-0.4-0.2-0.7s-0.8-1.3-1.4-1.9l-0.6-0.7c-0.1-0.2-0.6-1.2-0.6-1.5
				c0-0.1-0.2-0.5-0.2-0.7s0.7-1.1,0.9-1.2c0.1-0.1,0.7-0.7,0.8-1s0-1,0-1.2S25,23.3,25,23.3l0-0.3c0.2,0,1.1,0.7,1.2,0.7
				c0,0,0.6,0.2,0.7,0.4c0.2,0.2,0.5,0.4,0.4,0.7c0,0.1-0.3,1.2-0.3,1.2s-0.2,0.8-0.2,0.9s-0.2,0.7-0.2,0.9c0,0.2-0.2,0.6-0.1,0.7
				c0,0.1,0.5,0.8,0.7,0.9l0.2,0.1l0.1,0.3c0.1,0.5,0.3,1.5,0.3,1.5l0.2,0.1c0.1-0.1,0-0.5,0-0.7c-0.1-0.5-0.2-0.7-0.3-1.1
				c-0.1-0.2,0.2-0.6,0.2-0.7c0.1-0.2-0.4-0.5-0.4-0.6s0.3-1.1,0.3-1.2c0.1-0.3,0.2-1,0.2-1.3c0.1-0.3,0.2-1.1,0.2-1.3
				c0.1-0.6,0-1,0.2-1l1.2-0.7c0,0,0.2-0.2,0.3-0.2c0,0,1.2,0.2,1.7,0.3c0.5,0.2,1.1,0.2,1.6,0.2c0.2,0,1.2-0.2,1.2-0.2l0.2,0.2
				c0.1,0.1,0.3,0.5,0.4,0.6c0.1,0.1,0.2,0.6,0.2,0.6l0.2,0.1c0.1,0-0.2-0.7-0.2-0.7c0-0.1-0.1-0.4-0.1-0.6c0-0.5-0.5-1.2-0.6-1.4
				c-0.2-0.4-0.6-0.4-1-0.4c-0.2,0-0.6,0.1-0.7,0.1c0,0-0.8,0.3-0.9,0.3l-0.7-0.1C31,21.5,31,21.1,31,21c0.1-0.1,0.2-0.5,0.2-0.5
				c0.1-0.1,0.4-1.2,0.5-1.2l0,0c0,0,0,0,0.1,0c0,0,0.2,0.2,0.3,0.3c0.5,0.5,1,0.8,1.3,0.8c0.2,0,0.2,0,0.3-0.2s0.4-0.5,0.5-0.7
				c0-0.1,0.3-1,0.3-1.2c0.1-0.4,0-1.3,0-1.6c0-0.1-0.1-0.3-0.1-0.5s-0.3-0.9-0.3-1c0,0-0.2-0.3-0.2-0.4s0-0.6,0.1-0.6l0.2-0.2
				c0.1-0.1,0.2-0.2,0.3-0.2c0.1-0.1,0.4-0.1,0.6-0.1h0.1c0.4,0,1,0.2,1.2,0.3c0.1,0,1.2,0.7,1.5,1c0.1,0.1,0.1,0.1,0.2,0.1
				c0,0,0.2-0.1,0.1-0.3c-0.1-0.2-0.2-0.2-0.3-0.4c-0.2-0.2-0.7-0.5-1.1-0.7c0,0-0.7-0.2-0.8-0.2s-1.2-0.2-1.4-0.2
				c-0.2,0.1-0.4,0.2-0.6,0.3c-0.2,0.1-0.3,0.3-0.3,0.4l0.3,0c0,0-0.3-0.2-0.3-0.6c0-0.3,0.3-1.2,0.3-1.2c0-0.1,0.5-0.5,0.7-0.6
				c0.5-0.3,0.8-0.4,1.4-0.4l0,0c0.3,0,0.5,0,0.8,0.1c0.1,0,0.7,0.1,0.7,0.1v-0.1c0-0.1-1-0.4-1.3-0.4c-0.5,0-0.9,0.1-1.3,0.3
				c-0.4,0.2-0.5,0.2-0.7,0.5c-0.4,0.3-0.6,0.7-0.7,1.3c0,0.2-0.1,0.2-0.1,0.2c-0.1,0-0.6-0.3-0.7-0.3l-0.2,0.2l-0.2-0.2
				C32.2,13,31.8,13,31.8,13c-0.1,0-0.7,0.2-0.7,0.2s-0.5,0.2-0.6,0.2s-0.3,0.3-0.5,0.4c-0.2,0.1-0.2,0.5-0.2,0.6
				c-0.1,0.1-0.3,0.3-0.2,0.4c0.1,0.1,0.1,0.2,0,0.3c0,0.1-0.2,0.2-0.2,0.2c-0.1,0-0.1,0-0.1-0.1c0,0-0.7-0.2-0.8-0.2
				c-0.1,0-0.4,0.2-0.4,0.2L27.8,15c-0.3,0-0.7,0-0.8,0c0,0-0.2,0-0.3,0.1c-0.3,0-0.4,0.1-0.5,0.2c0,0.2-0.1,0.2-0.2,0.2
				s-0.3-0.2-0.3-0.3V15v0.1c0,0.1-0.2,0.2-0.2,0.2l0,0c-0.7-0.9-1.9-2.1-3.7-3.6c-2.1-1.8-4.1-3.2-6-4.3
				C14.5,6.9,13.5,6.5,12.8,6.5z"/>
		</g>
	</g>
</g>
</svg>
