<?xml version="1.0" encoding="utf-8"?>
<!-- Generator: Adobe Illustrator 28.3.0, SVG Export Plug-In . SVG Version: 6.00 Build 0)  -->
<svg version="1.1" id="Ebene_1" xmlns="http://www.w3.org/2000/svg" xmlns:xlink="http://www.w3.org/1999/xlink" x="0px" y="0px"
	 viewBox="0 0 45 45" style="enable-background:new 0 0 45 45;" xml:space="preserve">
<style type="text/css">
	.st0{fill:#FFCC99;stroke:#000000;stroke-width:1.1339;stroke-miterlimit:10;}
	.st1{fill:#CCCCCC;stroke:#000000;stroke-width:0.8504;stroke-miterlimit:10;}
</style>
<g>
	<path class="st0" d="M22.5,0.6c12.1,0,21.9,9.8,21.9,21.9s-9.8,21.9-21.9,21.9S0.6,34.6,0.6,22.5l0,0C0.5,10.4,10.3,0.6,22.5,0.6"
		/>
	<path class="st1" d="M33.7,9.4h0.4c0.4,0,0.8,0.1,1.2,0.2c0.4,0.2,0.8,0.3,1.2,0.6c0.2,0.2,0.4,0.3,0.6,0.5
		c0.4,0.6,0.7,1.2,1.1,1.9c0.3,0.7,0.7,1.4,0.8,2.1c0.2,0.7,0.6,2.4,0.2,3.7c-0.3,1.1-1.9,1.8-2,1.9c-0.1,0.2-0.2-0.2-0.2-0.5
		c0-0.2-1.5,1.3-1.7,1.2c-0.1,0-0.3,1.2-0.4,1.7c0,0,0.2,0.8,0.2,1c-0.1,0.4-0.2,0.7-0.4,1.1c-0.1,0.2,0.6,0.3,0.5,0.5
		c-0.2,0.5-0.4,1.3-0.3,1.2c0.1,0,0.3,0.1,0.3,0.2c0,0.2-0.4,1.8-0.4,1.9C34.5,29,34.3,30,34.4,30c0.1-0.1,0.2,0.1,0.2,0.2
		c-0.1,0.2-0.2,0.6-0.3,0.8c-0.6,1-1.2,2-1.8,3c-0.2,0.2-0.8,1.3-1.1,1.6c-0.1,0.2-1.1,1.2-1,1.2s-0.8,0.7-1,0.7
		c-0.8,0.1-1.7,0.1-2.6,0.2c-0.4,0-0.9,0.1-1.4,0.1c-0.7,0-1.4,0.3-2,0.7c-0.2,0-0.2,0-0.4,0c-0.3,0.1-0.6,0.3-0.7,0.7
		c-0.1,0.2-0.7,0.5-0.7,0.6c-0.1,0-0.7-0.7-0.8-0.4c-0.1,0.1-0.2,0.2-0.2,0.3c-0.2,0.2-0.4,0.2-0.6,0.2S19.8,40,19.7,40l-0.2-0.2
		c0.1-0.2,0.2-0.2,0.2-0.4c0-0.1-0.1-0.2-0.2-0.2c-0.2,0-0.7,0.2-0.7,0.2c-0.1,0-0.2-0.1-0.2-0.2c0-0.1-0.2-0.2-0.4-0.2
		C18,39,18,38.8,18,38.7c0.1-0.2,0.3-0.8,0.4-0.9c0.1-0.2,0.2-0.2,0.3-0.3c0.1,0,0.6-0.2,0.7-0.2c0.2,0,0.4-0.1,0.7-0.2
		c0.1,0-0.6-0.5-0.9-0.7c-0.2-0.2-0.4-0.3-0.6-0.5c-0.1-0.1-0.2-0.2-0.3-0.2c-0.1,0-0.2,0-0.3,0c-0.4,0-1.9,0-2.1,0
		c-0.2,0-0.3,0-0.5,0.1c-0.3,0.2-0.7,0.3-1,0.5c-0.2,0.1-0.4,0.1-0.6,0.1c-0.2,0-0.3,0.1-0.4,0.2c-0.2,0.1-0.2,0.2-0.4,0.2
		s-0.7-0.1-0.7-0.2c0.2-0.2,0.7-0.7,0.5-0.8c-0.2,0-0.9,0.6-1.2,0.6c-0.1,0-0.2-0.1-0.2-0.1c-0.1,0-0.3,0.1-0.3,0s0-0.2-0.1-0.2
		s-0.3-0.2-0.2-0.3s0.2-0.1,0.2-0.1c0.1-0.2,0.2-0.4,0.3-0.6c0.1-0.1,0.2-0.2,0.3-0.2s0.6-0.2,0.7-0.2c0.2,0,0.4,0,0.6,0.1
		c0.2,0.1,0.4,0.2,0.7,0.2c1.2-0.1,2.4-0.2,3.5-0.7c0,0-0.3-0.6-0.5-0.8c-0.3-0.6-0.6-1.3-0.7-2.1c-0.1-0.7-0.1-1.6,0.2-2.3
		c0-0.1,0.1-0.2,0-0.3c-0.2-0.5-0.4-0.9-0.8-1.3c-0.1,0.2-0.8,0.7-0.9,0.8c-0.2,0.2-0.5,0.4-0.7,0.7c-0.1,0.2-0.2,0.3-0.3,0.5
		c-0.1,0.1-0.1,0.2,0,0.3c0.1,0.1,0.1,0.2,0,0.4c-0.2,0.6-0.7,1.6-0.7,1.4c-0.1,0.1-0.7-0.3-0.7-0.2c-0.1,0-0.1-0.5-0.1-0.7
		c0-0.5,0.1-1,0.2-1.6c0.1-0.2,0.2-0.5,0.2-0.7c0.1-0.2,0.2-0.3,0.2-0.6c0.2-0.4,0.2-0.9,0.2-1.4c0-0.3-0.1-0.7-0.2-0.9
		s-0.3-0.4-0.5-0.6c-0.5-0.7-0.7-1.5-1-2.3c-0.1-0.2-0.2-0.5-0.2-0.7c-0.1-0.2-0.2-0.4-0.4-0.5c-0.2-0.2-0.4-0.2-0.7-0.2
		c-0.1,0-0.2,0-0.3,0c-0.3,0-0.6,0.1-0.9,0.2c-0.3,0.1-0.7,0.1-1,0c-0.5-0.1-1-0.2-1.5-0.5c-0.2-0.1-0.2-0.2-0.4-0.3
		c-0.1-0.1-0.2-0.1-0.2-0.2c-0.2-0.1-0.3-0.3-0.4-0.6v-0.2c0.1-0.2,0.2-0.4,0.3-0.7c0-0.7,0.2-0.9,0.2-1.1c0.1-0.1,0.1-0.2,0.2-0.3
		C5.8,17.3,5.9,17.2,6,17c0.4-0.7,0.9-1.5,1.7-2.1c0.4-0.4,0.9-0.7,1.5-1c0.6-0.2,1.2-0.5,1.8-0.6c0.1,0,0.2-0.1,0.2-0.2
		c0.3-0.6,0.6-1.2,0.9-1.8c0.1-0.2,0.7-0.2,0.7-0.2c0.1-0.2,0.2-0.4,0.2-0.6c0.2-0.3,0.3-0.7,0.5-1.1c0-0.1,0.6,0.4,0.6,0.5
		c-0.2,0.6-0.3,1.2-0.5,1.7c0,0,0.7,1.2,0.7,1.3s0,0.4,0,0.5c0.5,0.2,1,0.6,1.4,1c0.4,0.6,0.7,1.3,0.9,2c0,0.2,0.1,0.3,0.1,0.4
		c0.2,0.1,0.5,0.1,0.8,0.1c0.7,0.1,1.4,0.4,1.8,0.9c0.1,0.1,0.2,0.2,0.2,0.2c0.2,0.1,1,0.2,1.2,0.2c0.1,0,1.2,0.1,1.7,0.2
		c0.8,0.1,1.8,0.3,2.6,0.6c0.3,0.2,0.7,0.2,0.9,0.4c0.5,0.3,0.9,0.8,1.4,1.4c0.4,0.6,0.7,1.4,0.8,2.1c0.1,0.4,0.2,2.1,0.2,2.4
		c0,0.2,0.1,2.6,0,3.1c-0.1,0.7-0.2,1.7-0.4,2.4c-0.2,0.7-0.7,2.5-0.6,2.6c0.2-0.2,0.3-0.3,0.4-0.5c0.7-0.9,1.2-2.1,1.5-3.2
		c0.2-0.7,0.2-1.7,0.2-2.4c0-0.5-0.1-0.9-0.1-1.5c-0.2-0.7-0.2-1.7-0.4-2.4c-0.2-0.7-0.4-1.7-0.7-2.4c-0.2-0.7-0.5-1.5-0.7-2.1
		c-0.2-0.7-0.4-1.6-0.3-2.4c0-0.4,0.1-0.8,0.2-1.3c0.1-0.4,0.2-0.7,0.3-1.2c0.1-0.3,0.2-0.6,0.3-0.9c0.2-0.4,0.4-0.7,0.7-1.1
		c0.4-0.6,0.8-1.1,1.4-1.6C30.5,10.2,32.9,9.4,33.7,9.4z"/>
</g>
</svg>
